<svg width="469" height="109" viewBox="0 0 469 109" fill="none" xmlns="http://www.w3.org/2000/svg">
<path d="M7.03496 90.1043C6.84731 89.8651 6.77606 89.6058 6.8212 89.3264C6.86905 89.0245 7.02516 88.7698 7.28951 88.5624L12.5011 84.4738C13.7222 83.5159 14.973 83.1142 16.2534 83.2688C17.5366 83.401 18.6423 84.0587 19.5707 85.242C20.736 86.7274 20.9124 88.2872 20.0997 89.9212L20.1441 89.9779C20.8982 89.7726 21.6189 89.797 22.3062 90.0509C22.9836 90.2922 23.5939 90.7591 24.1371 91.4515L25.6629 93.3964C26.0382 93.8747 26.1735 94.3583 26.0689 94.8471C25.9643 95.3359 25.6225 95.8074 25.0434 96.2617L22.451 92.9572C21.8683 92.2145 21.2589 91.7877 20.6227 91.6767C19.9893 91.5432 19.3453 91.7332 18.6907 92.2468L14.2721 95.7132L17.4867 99.8107C17.862 100.289 17.9973 100.773 17.8927 101.261C17.8007 101.74 17.4652 102.207 16.8861 102.661L7.03496 90.1043ZM17.3774 90.8062C18.0698 90.263 18.4495 89.6194 18.5166 88.8754C18.5962 88.1215 18.3447 87.3731 17.762 86.6304C17.1695 85.8751 16.5201 85.4491 15.8138 85.3525C15.1075 85.2558 14.3893 85.4938 13.6592 86.0666L9.35396 89.4442L13.0722 94.1837L17.3774 90.8062Z" fill="black"/>
<path d="M24.3164 76.8961C24.1435 76.6461 24.0946 76.3784 24.1697 76.0931C24.2357 75.7946 24.4003 75.5544 24.6635 75.3724L33.409 69.3263C33.7912 69.8791 33.9614 70.3644 33.9196 70.7823C33.8778 71.2002 33.62 71.5729 33.1462 71.9005L26.6907 76.3634L29.7479 80.7855L35.2755 76.9641C35.6577 77.5168 35.8279 78.0022 35.7861 78.4201C35.7444 78.838 35.4931 79.2061 35.0325 79.5246L30.867 82.4043L34.0061 86.9449L40.8762 82.1954C41.3368 81.8769 41.77 81.772 42.1757 81.8805C42.5814 81.9891 42.9753 82.3197 43.3575 82.8725L34.2171 89.1915C33.9539 89.3735 33.6755 89.4492 33.3821 89.4186C33.0796 89.3749 32.8419 89.228 32.669 88.978L24.3164 76.8961Z" fill="black"/>
<path d="M42.7206 65.3121C42.4064 64.7916 42.32 64.2925 42.4614 63.8146C42.6082 63.3148 42.9693 62.8913 43.5446 62.544L58.8345 69.8541L58.9039 69.644L57.7127 69.0174L51.0647 58.0045C51.6948 57.6241 52.25 57.4758 52.7305 57.5596C53.2246 57.6351 53.6287 57.9331 53.943 58.4536L60.9631 70.083C61.2277 70.5213 61.2893 70.9794 61.1479 71.4572C61.0202 71.9268 60.7166 72.3063 60.2372 72.5957L44.6011 65.1301L44.5317 65.3402L45.7229 65.9668L51.5648 75.6442C51.879 76.1647 51.9544 76.6612 51.791 77.1336C51.6414 77.5977 51.2515 78.02 50.6214 78.4003L42.7206 65.3121Z" fill="black"/>
<path d="M62.0179 53.2258C61.8771 52.9563 61.8616 52.6847 61.9712 52.4108C62.0735 52.1227 62.2664 51.9046 62.5501 51.7565L71.9741 46.8344C72.2852 47.43 72.3943 47.9326 72.3014 48.3422C72.2084 48.7518 71.9066 49.0899 71.3961 49.3565L64.4397 52.9898L66.9286 57.755L72.8851 54.6439C73.1962 55.2396 73.3053 55.7422 73.2123 56.1518C73.1193 56.5613 72.8247 56.8957 72.3283 57.155L67.8397 59.4994L70.3952 64.3922L77.7982 60.5256C78.2946 60.2664 78.7374 60.2156 79.1267 60.3733C79.5159 60.5311 79.8661 60.9077 80.1772 61.5034L70.3277 66.6477C70.044 66.7959 69.7585 66.8367 69.4711 66.7702C69.1762 66.6895 68.9584 66.5145 68.8177 66.245L62.0179 53.2258Z" fill="black"/>
<path d="M92.9408 55.7022C92.4127 55.9323 91.9257 55.9962 91.4797 55.8938C91.0273 55.7768 90.6402 55.5092 90.3183 55.0909L80.5332 42.5474C80.6957 42.3195 80.9456 42.1321 81.283 41.9851C81.7084 41.7997 82.1157 41.7532 82.5049 41.8454C82.8877 41.9229 83.203 42.1258 83.4508 42.4542L90.3932 51.8382L90.6068 53.2897L90.758 53.2762L88.9509 39.4555C88.9137 39.21 88.9502 38.9933 89.0604 38.8057C89.1853 38.6117 89.3651 38.4635 89.5998 38.3612C89.8198 38.2654 90.0434 38.2378 90.2705 38.2784C90.4977 38.3191 90.6885 38.4366 90.8431 38.6311L98.7044 48.3216L98.9811 49.7979L99.1323 49.7844L96.7841 36.6445C96.7123 36.2395 96.771 35.8736 96.9603 35.5468C97.1578 35.1989 97.4619 34.9355 97.8726 34.7566C98.2099 34.6096 98.532 34.5478 98.8389 34.5711L101.363 50.2783C101.451 50.7988 101.376 51.2678 101.139 51.6852C100.91 52.0815 100.532 52.3948 100.003 52.6249L90.4411 40.9529L90.3282 41.0545L91.0648 41.9639L92.9408 55.7022Z" fill="black"/>
<path d="M114.357 46.8793C113.872 46.9485 113.451 46.8849 113.093 46.6887C112.73 46.4774 112.474 46.1605 112.325 45.738C112.224 45.4513 112.186 45.1256 112.21 44.7608L113.029 29.8387C113.05 29.3221 113.318 28.9734 113.831 28.7924C114.313 28.6221 114.733 28.7287 115.089 29.1122L125.088 40.2185C125.336 40.4875 125.51 40.7653 125.611 41.052C125.755 41.4594 125.752 41.8593 125.602 42.2515C125.451 42.6438 125.166 42.965 124.745 43.2152L121.13 39.1713L114.635 41.4624L114.357 46.8793ZM119.827 37.5695L114.297 31.1982L114.14 31.3299L114.915 32.2274L114.644 39.3976L119.827 37.5695Z" fill="black"/>
<path d="M141.848 22.0101C141.702 21.4197 141.778 20.9233 142.074 20.5208C142.371 20.1183 142.876 19.829 143.591 19.6531L145.398 26.9939L153.671 24.9573L152.311 19.4342C152.166 18.8438 152.241 18.3474 152.538 17.9449C152.834 17.5423 153.34 17.2531 154.054 17.0772L157.726 31.9919C157.871 32.5823 157.796 33.0787 157.499 33.4812C157.203 33.8837 156.698 34.173 155.983 34.3489L154.147 26.8915L145.874 28.9282L147.262 34.5678C147.408 35.1582 147.332 35.6546 147.036 36.0571C146.74 36.4596 146.234 36.7489 145.519 36.9248L141.848 22.0101Z" fill="black"/>
<path d="M172.938 30.8504C171.631 31.0857 170.413 31.045 169.283 30.7282C168.166 30.3929 167.235 29.8289 166.491 29.0363C165.744 28.2279 165.271 27.2725 165.072 26.1703L164.137 20.9738C163.938 19.8716 164.051 18.8271 164.475 17.8403C164.896 16.8379 165.573 15.9925 166.505 15.3043C167.451 14.5975 168.577 14.1265 169.884 13.8911C171.207 13.6529 172.427 13.7015 173.544 14.0368C174.674 14.3536 175.611 14.9083 176.356 15.7009C177.097 16.4778 177.567 17.4174 177.765 18.5197L178.701 23.7161C178.9 24.8184 178.79 25.8786 178.372 26.8969C177.951 27.8993 177.267 28.754 176.322 29.4608C175.373 30.1518 174.245 30.615 172.938 30.8504ZM172.59 28.9135C174.054 28.6498 175.13 28.082 175.819 27.2103C176.507 26.3385 176.742 25.2963 176.524 24.0838L175.601 18.9582C175.383 17.7457 174.8 16.8589 173.854 16.2978C172.904 15.7209 171.698 15.5643 170.233 15.828C168.784 16.0888 167.716 16.6552 167.028 17.527C166.336 18.383 166.1 19.4173 166.318 20.6298L167.241 25.7553C167.459 26.9678 168.043 27.8625 168.993 28.4394C169.942 29.0164 171.141 29.1744 172.59 28.9135Z" fill="black"/>
<path d="M186.49 13.0661C186.424 12.4777 186.573 12.0024 186.935 11.6402C187.295 11.2621 187.825 11.0342 188.525 10.9564L195.837 24.174L195.508 25.3454L195.683 25.3984L200.118 9.66866C200.818 9.59093 201.385 9.69696 201.819 9.98674C202.27 10.2748 202.528 10.713 202.593 11.3013L204.286 26.5436C202.807 26.7079 202 26.1778 201.864 24.9533L200.748 14.9111L201.186 13.1963L200.99 13.1698L197.107 26.6892C197.048 26.8888 196.938 27.054 196.775 27.1848C196.614 27.3314 196.439 27.4154 196.248 27.4366C196.041 27.4595 195.844 27.4251 195.657 27.3332C195.47 27.2413 195.325 27.0964 195.222 26.8985L188.464 14.5371L188.281 14.6298L189.082 16.183L190.2 26.249C190.267 26.8533 190.127 27.3357 189.781 27.6961C189.449 28.0389 188.917 28.2509 188.185 28.3322L186.49 13.0661Z" fill="black"/>
<path d="M212.125 9.98647C212.112 9.68277 212.212 9.43003 212.428 9.22825C212.642 9.01048 212.909 8.89447 213.229 8.88022L223.85 8.40683C223.88 9.07816 223.767 9.57973 223.509 9.91152C223.252 10.2433 222.835 10.422 222.26 10.4477L214.419 10.7971L214.659 16.1678L221.372 15.8686C221.402 16.5399 221.288 17.0415 221.031 17.3733C220.773 17.7051 220.365 17.8834 219.805 17.9084L214.746 18.1338L214.992 23.6484L223.336 23.2765C223.895 23.2515 224.318 23.3929 224.604 23.7004C224.89 24.008 225.048 24.4975 225.078 25.1688L213.977 25.6636C213.657 25.6778 213.381 25.594 213.149 25.4122C212.916 25.2144 212.793 24.9636 212.779 24.6599L212.125 9.98647Z" fill="black"/>
<path d="M233.883 9.28359C233.888 8.97963 233.996 8.73346 234.208 8.54508C234.435 8.34097 234.717 8.24181 235.053 8.24761L242.06 8.36843C243.116 8.38663 244.048 8.62674 244.856 9.08874C245.664 9.53474 246.286 10.1615 246.72 10.9692C247.154 11.7608 247.363 12.6685 247.345 13.6923C247.327 14.7482 247.087 15.6722 246.625 16.4643C246.179 17.2568 245.545 17.8619 244.721 18.2798C243.898 18.6977 242.951 18.8973 241.879 18.8789L235.976 18.7771L235.896 23.4084C235.885 24.0163 235.685 24.4769 235.296 24.7903C234.906 25.1036 234.344 25.2539 233.608 25.2412L233.883 9.28359ZM241.913 16.8872C242.873 16.9037 243.638 16.6289 244.208 16.0626C244.778 15.4803 245.072 14.6773 245.089 13.6534C245.106 12.6616 244.832 11.8727 244.266 11.2869C243.716 10.6853 242.969 10.3764 242.026 10.3601L236.122 10.2583L236.01 16.7854L241.913 16.8872Z" fill="black"/>
<path d="M256.31 25.9492C255.839 25.8149 255.481 25.5853 255.234 25.2605C254.989 24.9196 254.884 24.5259 254.92 24.0794C254.944 23.7764 255.042 23.4632 255.212 23.1399L262.039 9.84552C262.269 9.3825 262.655 9.17285 263.197 9.21658C263.708 9.25773 264.047 9.52589 264.216 10.0211L268.824 24.2374C268.941 24.5839 268.987 24.9087 268.962 25.2117C268.928 25.6423 268.762 26.0061 268.465 26.3032C268.168 26.6003 267.777 26.7774 267.29 26.8346L265.636 21.6689L258.771 21.1153L256.31 25.9492ZM265.099 19.6752L262.644 11.6038L262.446 11.6601L262.788 12.7953L259.621 19.2335L265.099 19.6752Z" fill="black"/>
<path d="M283.737 28.8463C282.391 28.6516 281.231 28.2332 280.257 27.5911C279.285 26.9332 278.571 26.1184 278.113 25.1469C277.658 24.1595 277.513 23.0958 277.678 21.9557L278.447 16.635C278.612 15.4949 279.044 14.5227 279.742 13.7184C280.457 12.9164 281.364 12.3444 282.464 12.0024C283.564 11.6605 284.78 11.5857 286.11 11.7781C287.44 11.9706 288.589 12.355 289.556 12.9315C290.526 13.4921 291.242 14.1858 291.704 15.0125C292.183 15.8415 292.353 16.7311 292.215 17.6812C292.147 18.1563 291.935 18.5055 291.579 18.7288C291.223 18.9522 290.784 19.0261 290.262 18.9505C290.151 18.9345 289.987 18.8946 289.77 18.8308C289.829 18.6454 289.888 18.3468 289.948 17.9351C290.046 17.2542 289.936 16.6159 289.618 16.0202C289.316 15.4269 288.831 14.9282 288.162 14.5242C287.508 14.1226 286.731 13.8564 285.828 13.7259C284.941 13.5976 284.125 13.6493 283.381 13.881C282.638 14.0969 282.025 14.4771 281.542 15.0216C281.077 15.5525 280.79 16.198 280.68 16.9581L279.91 22.2787C279.8 23.0388 279.9 23.7483 280.209 24.4073C280.517 25.0663 281.004 25.6136 281.669 26.0493C282.333 26.4849 283.117 26.768 284.019 26.8986C284.906 27.0269 285.719 26.991 286.46 26.7909C287.216 26.5932 287.824 26.2447 288.284 25.7454C288.76 25.2485 289.049 24.6516 289.15 23.9549L289.342 22.6247L286.349 22.1917C285.858 22.1207 285.486 21.8972 285.234 21.5211C284.983 21.1292 284.898 20.6561 284.978 20.1019L290.774 20.9404C291.091 20.9862 291.33 21.1179 291.493 21.3354C291.671 21.5552 291.737 21.8234 291.692 22.1401L291.379 24.3016C291.223 25.3784 290.792 26.2941 290.084 27.0486C289.393 27.8053 288.49 28.3457 287.376 28.6695C286.28 28.9798 285.068 29.0388 283.737 28.8463Z" fill="black"/>
<path d="M301.838 15.6393C301.9 15.3417 302.06 15.1218 302.318 14.9795C302.58 14.8216 302.868 14.7753 303.181 14.8405L313.589 17.0096C313.452 17.6675 313.218 18.1253 312.886 18.3831C312.555 18.6409 312.107 18.711 311.543 18.5935L303.86 16.9924L302.763 22.2553L309.342 23.6263C309.205 24.2842 308.97 24.742 308.639 24.9998C308.307 25.2575 307.867 25.3293 307.319 25.2151L302.362 24.1819L301.236 29.5858L309.412 31.2898C309.96 31.404 310.335 31.6455 310.536 32.0143C310.737 32.383 310.769 32.8964 310.632 33.5542L299.753 31.2872C299.44 31.2219 299.193 31.0724 299.013 30.8388C298.836 30.5894 298.779 30.316 298.841 30.0184L301.838 15.6393Z" fill="black"/>
<path d="M336.079 40.6281C334.795 40.2306 333.736 39.7017 332.902 39.0414C332.083 38.3859 331.524 37.6768 331.224 36.914C330.924 36.1511 330.883 35.4182 331.101 34.7151C331.281 34.1344 331.571 33.7384 331.971 33.5274C332.376 33.3011 332.892 33.285 333.519 33.479C333.117 34.7782 333.199 35.8923 333.765 36.8215C334.336 37.7353 335.325 38.41 336.731 38.8454C338.076 39.2618 339.177 39.3597 340.032 39.1389C340.892 38.9028 341.46 38.3415 341.734 37.455C341.9 36.9201 341.897 36.4419 341.726 36.0205C341.575 35.5885 341.217 35.1508 340.651 34.7075C340.104 34.2537 339.275 33.7122 338.164 33.0832C336.852 32.3422 335.845 31.6451 335.143 30.9922C334.446 30.3239 333.996 29.6403 333.793 28.9412C333.591 28.2421 333.623 27.4645 333.888 26.6086C334.153 25.7527 334.621 25.0772 335.294 24.582C335.987 24.0762 336.831 23.7848 337.826 23.7078C338.821 23.6307 339.907 23.7744 341.084 24.1388C342.2 24.4843 343.144 24.9524 343.915 25.5432C344.707 26.1233 345.258 26.7795 345.567 27.5118C345.896 28.2335 345.95 28.9535 345.727 29.6718C345.59 30.1151 345.336 30.4217 344.965 30.5916C344.614 30.7509 344.141 30.7383 343.545 30.5537C343.736 29.3401 343.586 28.364 343.095 27.6256C342.618 26.8919 341.761 26.3333 340.523 25.95C339.331 25.5808 338.348 25.5109 337.573 25.74C336.804 25.9539 336.301 26.443 336.064 27.2072C335.898 27.7421 335.876 28.2208 335.996 28.6434C336.136 29.0553 336.452 29.4712 336.941 29.8908C337.446 30.3152 338.183 30.8029 339.151 31.354C340.606 32.173 341.713 32.9261 342.472 33.6132C343.246 34.3051 343.739 35.0107 343.952 35.7298C344.165 36.4489 344.136 37.2441 343.867 38.1153C343.436 39.5061 342.514 40.4267 341.102 40.8771C339.694 41.3122 338.02 41.2292 336.079 40.6281Z" fill="black"/>
<path d="M355.84 31.0247C356.042 30.4681 356.378 30.1048 356.848 29.9348C357.339 29.7552 357.922 29.7881 358.599 30.0334L353.366 44.4742C353.164 45.0308 352.818 45.3989 352.327 45.5785C351.857 45.7485 351.284 45.7108 350.607 45.4655L355.84 31.0247Z" fill="black"/>
<path d="M367.243 35.2277C367.474 34.6826 367.836 34.3408 368.329 34.2022C368.829 34.049 369.402 34.1097 370.051 34.3844L369.957 49.4893L369.097 50.35L369.224 50.4818L380.79 38.9358C381.438 39.2105 381.881 39.5806 382.118 40.0461C382.37 40.5177 382.38 41.0261 382.149 41.5712L376.165 55.6914C374.795 55.1108 374.35 54.2533 374.831 53.119L378.774 43.816L379.994 42.5347L379.836 42.4156L369.833 52.304C369.684 52.4496 369.507 52.5396 369.301 52.574C369.089 52.6232 368.895 52.6103 368.718 52.5354C368.527 52.4542 368.372 52.3278 368.253 52.156C368.135 51.9842 368.08 51.7869 368.087 51.5642L368.245 37.4769L368.04 37.4682L367.977 39.2143L364.025 48.5394C363.788 49.0992 363.43 49.4515 362.952 49.5963C362.494 49.7326 361.927 49.6572 361.249 49.37L367.243 35.2277Z" fill="black"/>
<path d="M390.915 45.6194C391.184 45.0924 391.57 44.7774 392.072 44.6746C392.581 44.5576 393.149 44.6593 393.776 44.9799L392.598 60.0391L391.679 60.8358L391.795 60.9764L404.161 50.2904C404.787 50.6109 405.202 51.0118 405.405 51.4931C405.623 51.9817 405.597 52.4895 405.327 53.0166L398.345 66.6708C397.02 65.9934 396.638 65.1062 397.199 64.0093L401.799 55.0133L403.109 53.823L402.96 53.6928L392.272 62.8376C392.114 62.9722 391.93 63.0492 391.723 63.0688C391.508 63.1026 391.315 63.0758 391.144 62.9884C390.959 62.8937 390.813 62.7565 390.707 62.5766C390.602 62.3968 390.561 62.196 390.584 61.9744L391.752 47.9347L391.549 47.9114L391.361 49.6486L386.75 58.666C386.473 59.2073 386.091 59.533 385.603 59.6431C385.137 59.7462 384.577 59.6302 383.921 59.2951L390.915 45.6194Z" fill="black"/>
<path d="M411.232 74.1042C410.093 73.4212 409.202 72.5885 408.56 71.6063C407.94 70.6186 407.61 69.5814 407.571 68.4948C407.541 67.3945 407.814 66.3641 408.39 65.4036L411.106 60.8755C411.682 59.915 412.454 59.2028 413.423 58.7389C414.399 58.2612 415.465 58.0703 416.621 58.1662C417.798 58.2565 418.956 58.6432 420.095 59.3262C421.247 60.0175 422.134 60.857 422.754 61.8447C423.396 62.8269 423.737 63.8613 423.775 64.9479C423.822 66.0208 423.558 67.0375 422.982 67.998L420.266 72.5261C419.69 73.4866 418.909 74.2125 417.924 74.7039C416.948 75.1815 415.871 75.3752 414.693 75.2848C413.524 75.1808 412.37 74.7872 411.232 74.1042ZM412.244 72.4165C413.52 73.1818 414.704 73.4628 415.796 73.2596C416.888 73.0563 417.751 72.4264 418.385 71.3698L421.063 66.9035C421.697 65.847 421.842 64.796 421.499 63.7506C421.164 62.6915 420.358 61.7793 419.082 61.0139C417.82 60.2568 416.643 59.9799 415.551 60.1832C414.467 60.3727 413.608 60.9958 412.974 62.0523L410.296 66.5187C409.662 67.5752 409.513 68.633 409.848 69.6922C410.183 70.7513 410.981 71.6594 412.244 72.4165Z" fill="black"/>
<path d="M433.038 69.691C433.383 69.1904 433.802 68.9062 434.296 68.8384C434.812 68.7665 435.346 68.9212 435.9 69.3025L435.531 86.2461L435.751 86.2228L435.832 84.8793L443.132 74.2873C443.738 74.705 444.102 75.15 444.223 75.6223C444.358 76.1037 444.253 76.5947 443.908 77.0953L436.199 88.2802C435.908 88.7017 435.516 88.9464 435.023 89.0143C434.542 89.0912 434.071 88.9707 433.61 88.6529L433.978 71.3299L433.758 71.3531L433.677 72.6967L427.262 82.0042C426.917 82.5048 426.496 82.7779 425.998 82.8235C425.513 82.8781 424.968 82.6966 424.362 82.2789L433.038 69.691Z" fill="black"/>
<path d="M446.865 98.5628C445.808 97.7332 445.007 96.8612 444.464 95.9468C443.933 95.0422 443.664 94.1802 443.656 93.3606C443.648 92.541 443.871 91.8417 444.326 91.2627C444.701 90.7843 445.113 90.518 445.563 90.4637C446.022 90.3969 446.509 90.5659 447.026 90.9708C446.186 92.0409 445.865 93.1109 446.063 94.1811C446.27 95.2386 446.953 96.2217 448.111 97.1303C449.219 97.9994 450.212 98.4834 451.09 98.5825C451.978 98.6691 452.708 98.3472 453.281 97.6171C453.627 97.1765 453.795 96.7289 453.785 96.2742C453.799 95.8167 453.62 95.2799 453.249 94.6637C452.901 94.0448 452.32 93.2432 451.506 92.2589C450.545 91.0985 449.853 90.0881 449.43 89.2275C449.017 88.3543 448.841 87.5551 448.902 86.8298C448.962 86.1046 449.269 85.3895 449.822 84.6845C450.375 83.9796 451.054 83.5158 451.859 83.2932C452.687 83.068 453.579 83.097 454.536 83.3802C455.493 83.6635 456.457 84.1854 457.426 84.9458C458.345 85.6667 459.06 86.4408 459.57 87.2681C460.102 88.0927 460.382 88.9022 460.41 89.6965C460.46 90.4882 460.253 91.1799 459.789 91.7715C459.502 92.1366 459.156 92.3323 458.749 92.3587C458.364 92.3823 457.926 92.2016 457.435 91.8164C458.047 90.7511 458.256 89.7858 458.06 88.9205C457.877 88.0651 457.275 87.2375 456.256 86.4375C455.274 85.6672 454.38 85.2509 453.575 85.1886C452.78 85.1137 452.135 85.3909 451.641 86.0204C451.296 86.461 451.104 86.9001 451.065 87.3378C451.05 87.7727 451.195 88.2736 451.503 88.8404C451.824 89.4171 452.338 90.1357 453.046 90.996C454.112 92.2803 454.877 93.3788 455.341 94.2915C455.817 95.2141 456.026 96.0492 455.968 96.7969C455.91 97.5446 455.6 98.2773 455.037 98.9948C454.138 100.14 452.949 100.671 451.469 100.588C449.999 100.492 448.464 99.817 446.865 98.5628Z" fill="black"/>
</svg>
