<svg width="28" height="27" viewBox="0 0 28 27" fill="none" xmlns="http://www.w3.org/2000/svg">
<rect x="0.5" y="0.5" width="27" height="26" stroke="#1D1D1B"/>
<path d="M8.55 4.97C8.55 4.62333 8.67333 4.36 8.92 4.18C9.17333 4 9.54 3.91 10.02 3.91V6.84H12.83V4.97C12.83 4.62333 12.9533 4.36 13.2 4.18C13.4533 4 13.82 3.91 14.3 3.91V10.03C14.3 10.3767 14.1733 10.64 13.92 10.82C13.6733 11 13.31 11.09 12.83 11.09V8.11H10.02V10.03C10.02 10.3767 9.89333 10.64 9.64 10.82C9.39333 11 9.03 11.09 8.55 11.09V4.97ZM17.5057 5.27H15.0957C15.0957 4.42333 15.479 4 16.2457 4H21.3757C21.3757 4.84667 20.9924 5.27 20.2257 5.27H18.9757V10.03C18.9757 10.3767 18.849 10.64 18.5957 10.82C18.349 11 17.9857 11.09 17.5057 11.09V5.27ZM8.55 17.98C8.55 17.6533 8.68333 17.3933 8.95 17.2C9.21667 17 9.57333 16.9 10.02 16.9L12.02 22L11.77 22.68L11.88 22.73L14.03 16.91C14.4767 16.91 14.8333 17.01 15.1 17.21C15.3667 17.4033 15.5 17.6633 15.5 17.99V24.09C14.5467 24.09 14.07 23.74 14.07 23.04V20.18L14.43 19.18L14.31 19.14L12.61 23.7C12.5633 23.8133 12.4867 23.9067 12.38 23.98C12.2733 24.0533 12.1567 24.09 12.03 24.09C11.8967 24.09 11.7767 24.0533 11.67 23.98C11.5633 23.9067 11.4867 23.81 11.44 23.69L9.74 19.12L9.62 19.17L9.98 20.17V23.04C9.98 23.74 9.50333 24.09 8.55 24.09V17.98ZM17.3669 24C17.1535 24 16.9702 23.9233 16.8169 23.77C16.6702 23.6167 16.5969 23.4333 16.5969 23.22V17.97C16.5969 17.61 16.7169 17.3433 16.9569 17.17C17.1969 16.9967 17.5669 16.91 18.0669 16.91V22.73H20.6469C20.9802 22.73 21.2335 22.84 21.4069 23.06C21.5869 23.2733 21.6769 23.5867 21.6769 24H17.3669Z" fill="black"/>
</svg>
