<svg width="28" height="27" viewBox="0 0 28 27" fill="none" xmlns="http://www.w3.org/2000/svg">
<rect x="0.5" y="0.5" width="27" height="26" stroke="#1D1D1B"/>
<path d="M7.55 4.67C7.55 4.48333 7.62 4.32667 7.76 4.2C7.90667 4.06667 8.08333 4 8.29 4H12.84C12.84 4.44 12.7667 4.76 12.62 4.96C12.4733 5.16 12.2367 5.26 11.91 5.26H9.02V6.79H11.64C11.64 7.23 11.5667 7.55 11.42 7.75C11.2733 7.95 11.0367 8.05 10.71 8.05H9.02V10.08C9.02 10.4333 8.90333 10.69 8.67 10.85C8.44333 11.01 8.07 11.09 7.55 11.09V4.67ZM13.9414 4.98C13.9414 4.64667 14.0681 4.38667 14.3214 4.2C14.5814 4.00667 14.9447 3.91 15.4114 3.91V10.02C15.4114 10.36 15.2814 10.6233 15.0214 10.81C14.7681 10.9967 14.4081 11.09 13.9414 11.09V4.98ZM19.6202 11.09C19.0202 11.09 18.4835 10.9733 18.0102 10.74C17.5368 10.5067 17.1668 10.1833 16.9002 9.77C16.6402 9.35 16.5102 8.87333 16.5102 8.34V6.64C16.5102 6.10667 16.6368 5.63333 16.8902 5.22C17.1502 4.80667 17.5102 4.48667 17.9702 4.26C18.4368 4.02667 18.9668 3.91 19.5602 3.91C20.1535 3.91 20.6835 4 21.1502 4.18C21.6168 4.35333 21.9768 4.59667 22.2302 4.91C22.4902 5.22333 22.6202 5.58333 22.6202 5.99C22.6202 6.25 22.5335 6.45667 22.3602 6.61C22.1868 6.75667 21.9502 6.83 21.6502 6.83C21.4768 6.83 21.3068 6.80667 21.1402 6.76C21.1602 6.62 21.1702 6.45333 21.1702 6.26C21.1702 5.94 21.0202 5.68 20.7202 5.48C20.4202 5.27333 20.0335 5.17 19.5602 5.17C19.0935 5.17 18.7135 5.30667 18.4202 5.58C18.1268 5.85333 17.9802 6.20667 17.9802 6.64V8.34C17.9802 8.78 18.1302 9.14 18.4302 9.42C18.7368 9.69333 19.1335 9.83 19.6202 9.83C20.0868 9.83 20.4668 9.72333 20.7602 9.51C21.0535 9.29667 21.2002 9.02333 21.2002 8.69V8.46H20.4702C20.1968 8.46 19.9735 8.35333 19.8002 8.14C19.6335 7.92667 19.5502 7.65 19.5502 7.31H21.9802C22.1802 7.31 22.3435 7.37333 22.4702 7.5C22.5968 7.62 22.6602 7.78 22.6602 7.98V8.72C22.6602 9.18 22.5302 9.59 22.2702 9.95C22.0168 10.31 21.6602 10.59 21.2002 10.79C20.7402 10.99 20.2135 11.09 19.6202 11.09ZM7.55 17.98C7.55 17.6533 7.68333 17.3933 7.95 17.2C8.21667 17 8.57333 16.9 9.02 16.9L11.02 22L10.77 22.68L10.88 22.73L13.03 16.91C13.4767 16.91 13.8333 17.01 14.1 17.21C14.3667 17.4033 14.5 17.6633 14.5 17.99V24.09C13.5467 24.09 13.07 23.74 13.07 23.04V20.18L13.43 19.18L13.31 19.14L11.61 23.7C11.5633 23.8133 11.4867 23.9067 11.38 23.98C11.2733 24.0533 11.1567 24.09 11.03 24.09C10.8967 24.09 10.7767 24.0533 10.67 23.98C10.5633 23.9067 10.4867 23.81 10.44 23.69L8.74 19.12L8.62 19.17L8.98 20.17V23.04C8.98 23.74 8.50333 24.09 7.55 24.09V17.98ZM16.4169 24.09C16.0969 24.0633 15.8469 23.96 15.6669 23.78C15.4869 23.6 15.3969 23.3733 15.3969 23.1C15.3969 22.8867 15.4502 22.6633 15.5569 22.43L17.8169 17.4C17.8902 17.2333 17.9835 17.11 18.0969 17.03C18.2169 16.95 18.3635 16.91 18.5369 16.91C18.7102 16.91 18.8535 16.95 18.9669 17.03C19.0869 17.11 19.1835 17.2333 19.2569 17.4L21.5169 22.43C21.6235 22.6633 21.6769 22.8833 21.6769 23.09C21.6769 23.37 21.5869 23.6 21.4069 23.78C21.2269 23.96 20.9735 24.0633 20.6469 24.09L19.8069 22.26H17.2569L16.4169 24.09ZM19.3569 21L18.3269 18.44L18.1869 18.5L18.4569 19.17L17.6969 21H19.3569Z" fill="black"/>
</svg>
