<svg width="74" height="74" viewBox="0 0 74 74" fill="none" xmlns="http://www.w3.org/2000/svg">
<g clip-path="url(#clip0_88_25)">
<path d="M66 0H8C3.58172 0 0 3.58172 0 8V66C0 70.4183 3.58172 74 8 74H66C70.4183 74 74 70.4183 74 66V8C74 3.58172 70.4183 0 66 0Z" fill="#A3C3FF"/>
<path d="M52.32 25H19.68C17.0953 25 15 27.0953 15 29.68V51.32C15 53.9047 17.0953 56 19.68 56H52.32C54.9047 56 57 53.9047 57 51.32V29.68C57 27.0953 54.9047 25 52.32 25Z" fill="white"/>
<path d="M36 18C42.07 18 47 22.93 47 29H25C25 22.93 29.93 18 36 18Z" stroke="white" stroke-width="4" stroke-miterlimit="10"/>
<path d="M37.37 44.5499H34.75V42.7299C34.75 42.1199 34.87 41.6399 35.12 41.2899C35.37 40.9399 35.91 40.4399 36.74 39.7999C38.01 38.8199 38.65 37.7899 38.65 36.6899C38.65 35.8599 38.4 35.2099 37.9 34.7299C37.4 34.2499 36.75 33.9999 35.96 33.9999C34.11 33.9999 33.02 35.2799 32.69 37.8299L29.76 37.3099C29.94 35.3999 30.65 33.8999 31.88 32.8099C33.11 31.7199 34.59 31.1799 36.31 31.1799C38.03 31.1799 39.44 31.6899 40.56 32.7099C41.68 33.7299 42.24 34.9899 42.24 36.5099C42.24 37.2599 42.09 37.9799 41.78 38.6599C41.47 39.3399 41.12 39.8599 40.72 40.2299C40.32 40.5999 39.49 41.2499 38.22 42.1899C37.86 42.4499 37.63 42.6999 37.53 42.9499C37.43 43.1999 37.38 43.7299 37.37 44.5599V44.5499ZM37.91 46.4599V49.8199H34.75V46.4599H37.91Z" fill="#BBDAFF"/>
</g>
<defs>
<clipPath id="clip0_88_25">
<rect width="74" height="74" fill="white"/>
</clipPath>
</defs>
</svg>
