<svg width="74" height="74" viewBox="0 0 74 74" fill="none" xmlns="http://www.w3.org/2000/svg">
<g clip-path="url(#clip0_88_12)">
<path d="M66 0H8C3.58172 0 0 3.58172 0 8V66C0 70.4183 3.58172 74 8 74H66C70.4183 74 74 70.4183 74 66V8C74 3.58172 70.4183 0 66 0Z" fill="#A3C3FF"/>
<path d="M56 19.99V42.63C56 51.76 40.07 57.31 37.38 58.18C37.25 58.22 37.12 58.25 37 58.25V15.76C37.33 15.76 37.67 15.89 37.92 16.16C39.45 17.79 42.71 19.82 46.5 19.82C49.75 19.82 52.62 19.41 54.33 18.79C55.14 18.5 56 19.11 56 19.98V19.99Z" fill="#FFC892"/>
<path d="M37 15.76V58.24C36.87 58.24 36.74 58.22 36.62 58.17C33.93 57.3 18 51.75 18 42.62V19.98C18 19.11 18.85 18.49 19.67 18.79C21.38 19.41 24.25 19.82 27.5 19.82C31.29 19.82 34.55 17.79 36.08 16.16C36.33 15.89 36.67 15.76 37 15.76Z" fill="#FFE98F"/>
</g>
<defs>
<clipPath id="clip0_88_12">
<rect width="74" height="74" fill="white"/>
</clipPath>
</defs>
</svg>
