<svg width="74" height="74" viewBox="0 0 74 74" fill="none" xmlns="http://www.w3.org/2000/svg">
<g clip-path="url(#clip0_88_17)">
<path d="M66 0H8C3.58172 0 0 3.58172 0 8V66C0 70.4183 3.58172 74 8 74H66C70.4183 74 74 70.4183 74 66V8C74 3.58172 70.4183 0 66 0Z" fill="#BBDAFF"/>
<path d="M56 24V58H18V15H46" fill="#FFE98F"/>
<path d="M46 15V24H56L46 15Z" fill="#FFC892"/>
<path d="M40.06 32.29H26.93C26.41 32.29 25.99 31.71 25.99 31C25.99 30.29 26.41 29.71 26.93 29.71H40.06C40.58 29.71 41 30.29 41 31C41 31.71 40.58 32.29 40.06 32.29Z" fill="#F98821"/>
<path d="M41.94 40.29H27.06C26.47 40.29 26 39.71 26 39C26 38.29 26.48 37.71 27.06 37.71H41.94C42.53 37.71 43 38.29 43 39C43 39.71 42.52 40.29 41.94 40.29Z" fill="#F98821"/>
<path d="M45.69 48.29H27.31C26.59 48.29 26 47.71 26 47C26 46.29 26.59 45.71 27.31 45.71H45.69C46.41 45.71 47 46.29 47 47C47 47.71 46.41 48.29 45.69 48.29Z" fill="#F98821"/>
</g>
<defs>
<clipPath id="clip0_88_17">
<rect width="74" height="74" fill="white"/>
</clipPath>
</defs>
</svg>
