<svg width="74" height="74" viewBox="0 0 74 74" fill="none" xmlns="http://www.w3.org/2000/svg">
<g clip-path="url(#clip0_88_30)">
<path d="M62.414 0H11.586C5.18722 0 0 5.18722 0 11.586V62.414C0 68.8128 5.18722 74 11.586 74H62.414C68.8128 74 74 68.8128 74 62.414V11.586C74 5.18722 68.8128 0 62.414 0Z" fill="#FFE98F"/>
<path d="M45.1621 44.3448V50.1433C45.1621 52.6394 43.1409 54.6495 40.6558 54.6495L40.5896 58.3827L36.9779 54.6495H14.4466C11.9505 54.6495 9.94031 52.6284 9.94031 50.1433V33.3883C9.94031 30.8922 11.9615 28.8821 14.4466 28.8821H26.2534V37.254C26.2534 40.2692 28.1421 42.8427 30.8039 43.8698L30.837 45.5928C30.8812 47.868 33.6424 48.9615 35.2328 47.3269L38.1266 44.3448H45.1621Z" fill="white"/>
<path d="M59.5424 41.7714H37.0331L33.4215 45.5046L33.3552 41.7714C30.8591 41.7714 28.8379 39.7502 28.8379 37.2541V20.5102C28.8379 18.0141 30.8591 15.9929 33.3552 15.9929H59.5534C62.0495 15.9929 64.0707 18.0141 64.0707 20.5102V37.2541C64.0707 39.7502 62.0495 41.7714 59.5534 41.7714H59.5424Z" fill="white"/>
</g>
<defs>
<clipPath id="clip0_88_30">
<rect width="74" height="74" fill="white"/>
</clipPath>
</defs>
</svg>
