<svg width="28" height="27" viewBox="0 0 28 27" fill="none" xmlns="http://www.w3.org/2000/svg">
<rect x="0.5" y="0.5" width="27" height="26" stroke="#1D1D1B"/>
<path d="M8.55 10.67C8.55 10.4767 8.62 10.3167 8.76 10.19C8.90667 10.0633 9.08333 10 9.29 10H12.02C12.5133 10 12.95 10.1 13.33 10.3C13.71 10.4933 14.0033 10.7667 14.21 11.12C14.4233 11.4733 14.53 11.8833 14.53 12.35C14.53 12.8233 14.4267 13.24 14.22 13.6C14.0133 13.9533 13.72 14.2267 13.34 14.42C12.9667 14.6133 12.5267 14.71 12.02 14.71H10.02V16.03C10.02 16.3767 9.89333 16.64 9.64 16.82C9.39333 17 9.03 17.09 8.55 17.09V10.67ZM12.02 13.44C12.3533 13.44 12.61 13.3467 12.79 13.16C12.97 12.9667 13.06 12.6933 13.06 12.34C13.06 12 12.97 11.7367 12.79 11.55C12.61 11.3633 12.3533 11.27 12.02 11.27H10.02V13.44H12.02ZM17.0955 17.09C16.4155 17.09 15.8789 16.9767 15.4855 16.75C15.0922 16.5167 14.8955 16.2067 14.8955 15.82C14.8955 15.6467 14.9689 15.5 15.1155 15.38C15.2689 15.26 15.5122 15.2 15.8455 15.2C15.8989 15.4667 16.0322 15.6767 16.2455 15.83C16.4589 15.9767 16.7089 16.05 16.9955 16.05C17.3289 16.05 17.5855 16.01 17.7655 15.93C17.9522 15.85 18.0455 15.7333 18.0455 15.58C18.0455 15.4467 17.9722 15.33 17.8255 15.23C17.6789 15.13 17.3855 15.0267 16.9455 14.92C16.4322 14.8 16.0322 14.68 15.7455 14.56C15.4655 14.4333 15.2589 14.2767 15.1255 14.09C14.9922 13.9033 14.9255 13.6567 14.9255 13.35C14.9255 12.9167 15.1055 12.57 15.4655 12.31C15.8322 12.0433 16.3422 11.91 16.9955 11.91C17.6355 11.91 18.1555 12.02 18.5555 12.24C18.9555 12.46 19.1555 12.7533 19.1555 13.12C19.1555 13.3067 19.0855 13.4433 18.9455 13.53C18.8055 13.61 18.5722 13.6533 18.2455 13.66C18.1589 13.4067 18.0255 13.22 17.8455 13.1C17.6722 12.9733 17.4222 12.91 17.0955 12.91C16.8622 12.91 16.6555 12.95 16.4755 13.03C16.2955 13.11 16.2055 13.2067 16.2055 13.32C16.2055 13.4467 16.2789 13.5467 16.4255 13.62C16.5789 13.6933 16.8322 13.7667 17.1855 13.84C17.9522 14.0067 18.5022 14.2267 18.8355 14.5C19.1755 14.7733 19.3455 15.1433 19.3455 15.61C19.3455 15.8967 19.2555 16.1533 19.0755 16.38C18.8955 16.6067 18.6355 16.7833 18.2955 16.91C17.9555 17.03 17.5555 17.09 17.0955 17.09Z" fill="black"/>
</svg>
