<svg width="381" height="96" viewBox="0 0 381 96" fill="none" xmlns="http://www.w3.org/2000/svg">
<path d="M7.82239 77.1702C7.62908 76.9356 7.55165 76.678 7.5901 76.3976C7.63072 76.0946 7.78069 75.8363 8.04001 75.6226L13.1524 71.4106C14.3502 70.4238 15.591 69.9923 16.8748 70.1163C18.1608 70.2177 19.2819 70.8488 20.2383 72.0096C21.4388 73.4667 21.6524 75.0218 20.879 76.6748L20.9248 76.7304C21.6738 76.5072 22.3948 76.5143 23.088 76.7517C23.771 76.9768 24.3922 77.4289 24.9518 78.1081L26.5237 80.016C26.9103 80.4852 27.0572 80.9654 26.9643 81.4566C26.8714 81.9477 26.5409 82.4273 25.9729 82.8953L23.3022 79.6538C22.7019 78.9252 22.0825 78.513 21.4439 78.4173C20.8074 78.299 20.1681 78.5043 19.526 79.0334L15.1916 82.6045L18.5032 86.624C18.8898 87.0932 19.0367 87.5734 18.9438 88.0646C18.8632 88.5455 18.539 89.02 17.9709 89.488L7.82239 77.1702ZM18.1787 77.6246C18.8579 77.065 19.2221 76.4125 19.2713 75.6671C19.3329 74.9115 19.0636 74.1694 18.4633 73.4408C17.8529 72.6999 17.1935 72.2896 16.4851 72.2098C15.7767 72.13 15.0644 72.3852 14.3482 72.9753L10.1249 76.4548L13.9554 81.1041L18.1787 77.6246Z" fill="black"/>
<path d="M25.0167 63.4799C24.8424 63.2308 24.792 62.9634 24.8655 62.6776C24.9298 62.3788 25.093 62.1377 25.3552 61.9542L34.0668 55.8593C34.452 56.4099 34.6249 56.8942 34.5855 57.3124C34.546 57.7305 34.2904 58.1047 33.8184 58.4349L27.388 62.9339L30.4699 67.3388L35.976 63.4864C36.3613 64.037 36.5342 64.5214 36.4948 64.9395C36.4553 65.3577 36.2062 65.7272 35.7473 66.0483L31.5981 68.9513L34.7625 73.4742L41.6059 68.6863C42.0647 68.3653 42.4973 68.2579 42.9036 68.3642C43.3099 68.4704 43.7057 68.7989 44.0909 69.3495L34.9861 75.7196C34.7239 75.9031 34.446 75.9803 34.1524 75.9514C33.8496 75.9094 33.6111 75.7639 33.4368 75.5148L25.0167 63.4799Z" fill="black"/>
<path d="M43.5868 51.7403C43.2795 51.2157 43.1996 50.7155 43.3473 50.2395C43.5007 49.7417 43.8673 49.3229 44.4471 48.9832L59.6396 56.4936L59.7118 56.2845L58.5289 55.6423L52.0262 44.5429C52.6612 44.1709 53.2184 44.0299 53.6977 44.12C54.1907 44.202 54.591 44.5053 54.8983 45.0299L61.765 56.7505C62.0238 57.1923 62.0794 57.6511 61.9317 58.127C61.7979 58.5949 61.4894 58.9703 61.0062 59.2534L45.4696 51.583L45.3974 51.7922L46.5803 52.4343L52.2944 62.1877C52.6018 62.7123 52.6707 63.2097 52.5011 63.6799C52.3454 64.1421 51.95 64.5592 51.3149 64.9312L43.5868 51.7403Z" fill="black"/>
<path d="M63.2914 39.8779C63.1593 39.6041 63.1524 39.3321 63.2707 39.0618C63.3821 38.7771 63.5819 38.5653 63.8702 38.4263L73.4463 33.8071C73.7383 34.4124 73.8313 34.9182 73.7253 35.3246C73.6193 35.731 73.307 36.0593 72.7882 36.3096L65.7195 39.7192L68.0552 44.5613L74.1078 41.6417C74.3998 42.247 74.4928 42.7528 74.3868 43.1592C74.2809 43.5656 73.9757 43.8905 73.4713 44.1338L68.9102 46.3339L71.3084 51.3057L78.831 47.6771C79.3354 47.4338 79.7796 47.3972 80.1636 47.5672C80.5476 47.7373 80.8856 48.1249 81.1776 48.7302L71.1691 53.5579C70.8809 53.6969 70.5942 53.7286 70.309 53.653C70.0169 53.563 69.8048 53.3811 69.6727 53.1073L63.2914 39.8779Z" fill="black"/>
<path d="M94.1174 43.5213C93.5778 43.723 93.0881 43.7608 92.6481 43.6349C92.2026 43.4939 91.8303 43.2061 91.5311 42.7713L82.4274 29.7248C82.6018 29.5059 82.8613 29.332 83.2061 29.2032C83.6407 29.0407 84.0499 29.0159 84.4337 29.1287C84.8118 29.2265 85.1159 29.4459 85.3459 29.787L91.779 39.5272L91.9151 40.988L92.0668 40.9825L90.9977 27.0853C90.9736 26.8381 91.0216 26.6237 91.1417 26.4422C91.2767 26.2551 91.4641 26.1167 91.7039 26.0271C91.9287 25.9431 92.1535 25.9274 92.3781 25.9801C92.6028 26.0327 92.7871 26.1603 92.9311 26.3627L100.266 36.4578L100.463 37.9468L100.615 37.9413L98.9694 24.6951C98.9193 24.2868 98.9974 23.9246 99.2037 23.6083C99.4195 23.2715 99.7372 23.0246 100.157 22.8678C100.502 22.7389 100.826 22.6943 101.132 22.734L102.817 38.5533C102.876 39.0777 102.776 39.542 102.517 39.9462C102.268 40.3298 101.873 40.6225 101.334 40.8241L92.4061 28.6599L92.288 28.7552L92.9752 29.7026L94.1174 43.5213Z" fill="black"/>
<path d="M115.945 36.008C115.456 36.0406 115.041 35.9456 114.699 35.7231C114.353 35.4852 114.122 35.15 114.005 34.7176C113.925 34.4241 113.911 34.0964 113.963 33.7345L115.898 18.9157C115.958 18.4022 116.251 18.0745 116.776 17.9325C117.27 17.7989 117.681 17.9366 118.007 18.3457L127.145 30.1704C127.372 30.4572 127.525 30.7473 127.604 31.0408C127.717 31.4578 127.684 31.8563 127.505 32.2362C127.326 32.6161 127.017 32.915 126.579 33.1329L123.277 28.8294L116.628 30.6271L115.945 36.008ZM122.098 27.1345L117.061 20.3665L116.895 20.4861L117.6 21.4391L116.793 28.5689L122.098 27.1345Z" fill="black"/>
<path d="M152.193 21.7426L144.824 12.0242C144.924 11.9297 145.081 11.8434 145.297 11.7653C145.526 11.6692 145.743 11.607 145.949 11.5786C146.758 11.4674 147.383 11.7286 147.826 12.3622L152.941 19.4351L152.579 20.5024L152.759 20.5746L156.076 11.2273C156.347 10.4956 156.886 10.0741 157.695 9.96291C157.901 9.93456 158.119 9.93683 158.35 9.96971C158.594 9.98455 158.777 10.024 158.899 10.088L154.428 21.4352L155.033 25.8337C155.116 26.4361 154.989 26.9219 154.652 27.2913C154.315 27.6606 153.782 27.8954 153.053 27.9957L152.193 21.7426Z" fill="black"/>
<path d="M170.214 26.0485C169.729 25.9787 169.343 25.7994 169.055 25.5107C168.766 25.2059 168.609 24.8298 168.585 24.3825C168.568 24.079 168.623 23.7555 168.748 23.4122L173.727 9.32119C173.892 8.83147 174.247 8.57185 174.79 8.54232C175.301 8.51453 175.674 8.73464 175.908 9.20264L182.384 22.6709C182.546 22.9986 182.635 23.3142 182.652 23.6178C182.675 24.0492 182.56 24.432 182.306 24.7663C182.052 25.1006 181.687 25.3287 181.213 25.4506L178.88 20.554L172.002 20.9279L170.214 26.0485ZM178.08 18.6507L174.562 10.9823L174.374 11.0646L174.866 12.1435L172.592 18.949L178.08 18.6507Z" fill="black"/>
<path d="M191.405 9.8993C191.422 9.29154 191.627 8.83311 192.02 8.52402C192.413 8.21493 192.977 8.07073 193.713 8.0914L193.501 15.6484L202.017 15.8877L202.177 10.202C202.194 9.59419 202.399 9.13577 202.792 8.82668C203.185 8.51759 203.749 8.37338 204.485 8.39405L204.053 23.748C204.036 24.3558 203.831 24.8142 203.438 25.1233C203.046 25.4324 202.481 25.5766 201.746 25.5559L201.961 17.8789L193.445 17.6396L193.281 23.4453C193.264 24.0531 193.059 24.5115 192.667 24.8206C192.274 25.1297 191.71 25.2739 190.974 25.2532L191.405 9.8993Z" fill="black"/>
<path d="M218.938 26.8912C217.618 26.7448 216.462 26.3589 215.469 25.7336C214.493 25.0941 213.762 24.2886 213.274 23.3169C212.788 22.3292 212.607 21.2788 212.73 20.1657L213.312 14.9179C213.436 13.8047 213.841 12.8355 214.528 12.0102C215.217 11.169 216.107 10.5514 217.197 10.1572C218.305 9.74882 219.518 9.61786 220.838 9.76429C222.174 9.91248 223.33 10.3063 224.305 10.9458C225.298 11.5711 226.039 12.3696 226.527 13.3413C227.016 14.2971 227.199 15.3316 227.076 16.4448L226.494 21.6926C226.37 22.8058 225.963 23.7909 225.272 24.6479C224.583 25.4891 223.685 26.1139 222.577 26.5222C221.471 26.9146 220.258 27.0376 218.938 26.8912ZM219.155 24.9352C220.634 25.0993 221.828 24.8614 222.736 24.2217C223.644 23.5819 224.166 22.6498 224.302 21.4253L224.876 16.249C225.012 15.0245 224.706 14.0086 223.958 13.2013C223.213 12.378 222.1 11.8844 220.621 11.7203C219.158 11.558 217.973 11.7967 217.065 12.4365C216.158 13.0604 215.637 13.9845 215.501 15.209L214.927 20.3853C214.791 21.6098 215.096 22.6336 215.842 23.4569C216.588 24.2801 217.692 24.7729 219.155 24.9352Z" fill="black"/>
<path d="M240.4 30.1295C239.096 29.8749 237.975 29.3952 237.037 28.6902C236.118 27.9727 235.455 27.1096 235.049 26.101C234.645 25.0768 234.551 24.015 234.766 22.9158L235.778 17.7337C235.993 16.6345 236.476 15.7019 237.229 14.936C237.985 14.1544 238.922 13.612 240.041 13.3089C241.179 12.9931 242.399 12.9625 243.703 13.217C245.022 13.4747 246.141 13.9623 247.061 14.6798C247.999 15.3848 248.671 16.2415 249.077 17.2501C249.487 18.243 249.584 19.289 249.369 20.3882L248.357 25.5703C248.142 26.6696 247.656 27.6178 246.897 28.4151C246.141 29.1967 245.194 29.7454 244.056 30.0612C242.922 30.3613 241.703 30.3841 240.4 30.1295ZM240.777 28.198C242.237 28.4832 243.446 28.3444 244.404 27.7815C245.362 27.2187 245.958 26.3327 246.195 25.1235L247.193 20.0121C247.429 18.8029 247.208 17.7653 246.529 16.8992C245.854 16.0173 244.786 15.4338 243.325 15.1486C241.881 14.8664 240.68 15.0067 239.722 15.5696C238.767 16.1168 238.172 16.9949 237.936 18.2041L236.938 23.3155C236.701 24.5246 236.921 25.5701 237.597 26.452C238.272 27.3338 239.332 27.9158 240.777 28.198Z" fill="black"/>
<path d="M272.017 38.303C270.937 37.9495 270.026 37.4154 269.284 36.7009C268.556 35.9913 268.064 35.1818 267.806 34.2724C267.569 33.3528 267.602 32.4292 267.905 31.5017C268.065 31.0151 268.372 30.72 268.827 30.6164C269.297 30.5178 269.866 30.5781 270.535 30.7972C270.4 31.0559 270.283 31.3374 270.183 31.6415C269.814 32.7667 269.847 33.7456 270.282 34.5781C270.716 35.4107 271.504 36.0137 272.644 36.3872C273.8 36.7656 274.802 36.7401 275.649 36.3106C276.502 35.8659 277.118 35.0658 277.496 33.9102L280.342 25.2203L277.582 24.3165C276.487 23.958 276.147 23.1477 276.56 21.8856L282.079 23.6932C282.368 23.7878 282.579 23.9663 282.712 24.2287C282.85 24.4759 282.872 24.744 282.777 25.0329L279.64 34.6123C279.291 35.6767 278.727 36.5524 277.946 37.2396C277.181 37.9318 276.277 38.3767 275.236 38.5745C274.2 38.757 273.127 38.6666 272.017 38.303Z" fill="black"/>
<path d="M286.383 43.3781C285.977 43.1048 285.707 42.7754 285.573 42.3902C285.445 41.9901 285.467 41.5834 285.64 41.1699C285.757 40.8893 285.946 40.6217 286.209 40.367L296.815 29.8383C297.177 29.4692 297.609 29.3893 298.111 29.5987C298.583 29.7958 298.823 30.1559 298.83 30.679L298.812 45.6236C298.816 45.9891 298.759 46.3122 298.642 46.5928C298.476 46.9915 298.206 47.2861 297.831 47.4768C297.457 47.6674 297.03 47.7147 296.55 47.6185L296.576 42.1945L290.219 39.5431L286.383 43.3781ZM296.682 40.1324L296.845 31.6974L296.64 31.6899L296.614 32.8751L291.609 38.0168L296.682 40.1324Z" fill="black"/>
<path d="M312.762 37.5068C312.902 37.2368 313.108 37.0644 313.381 36.9894C313.676 36.9077 313.972 36.944 314.271 37.0984L320.495 40.3192C321.432 40.8045 322.161 41.4336 322.68 42.2065C323.206 42.9652 323.484 43.8028 323.514 44.7192C323.552 45.6214 323.335 46.5272 322.865 47.4366C322.379 48.3745 321.754 49.0957 320.988 49.6003C320.237 50.1123 319.4 50.3726 318.476 50.3813C317.553 50.3899 316.615 50.1479 315.663 49.6552L310.42 46.9418L308.291 51.0557C308.012 51.5957 307.628 51.9195 307.14 52.0272C306.652 52.135 306.081 52.0197 305.427 51.6814L312.762 37.5068ZM316.579 47.8861C317.432 48.3273 318.239 48.4208 319.001 48.1666C319.77 47.8982 320.39 47.3092 320.861 46.3998C321.317 45.5188 321.421 44.6901 321.175 43.9138C320.949 43.1307 320.417 42.5222 319.579 42.0883L314.336 39.3749L311.335 45.1727L316.579 47.8861Z" fill="black"/>
<path d="M325.348 62.4511C324.992 62.1148 324.78 61.7457 324.711 61.3436C324.65 60.928 324.739 60.5304 324.977 60.1508C325.138 59.8933 325.369 59.6604 325.67 59.4521L337.859 50.806C338.277 50.5013 338.716 50.4934 339.177 50.7823C339.611 51.0542 339.789 51.4488 339.71 51.966L337.24 66.7052C337.184 67.0663 337.075 67.3757 336.914 67.6333C336.684 67.9993 336.369 68.2457 335.969 68.3723C335.568 68.499 335.139 68.4755 334.682 68.3019L335.597 62.9557L329.761 59.2973L325.348 62.4511ZM336.04 60.9389L337.585 52.6449L337.384 52.604L337.163 53.7688L331.383 58.0198L336.04 60.9389Z" fill="black"/>
<path d="M351.93 61.5247C352.294 61.0379 352.725 60.7701 353.22 60.7216C353.739 60.6697 354.267 60.8451 354.805 61.2477L353.779 78.1641L353.999 78.1495L354.132 76.8101L361.839 66.5098C362.428 66.9507 362.774 67.4095 362.877 67.8862C362.993 68.3724 362.868 68.859 362.504 69.3458L354.367 80.2226C354.06 80.6326 353.659 80.8619 353.163 80.9104C352.68 80.9686 352.214 80.83 351.765 80.4945L352.806 63.1988L352.585 63.2135L352.452 64.5529L345.68 73.6041C345.316 74.0909 344.885 74.3474 344.385 74.3736C343.899 74.4094 343.361 74.2068 342.772 73.7659L351.93 61.5247Z" fill="black"/>
</svg>
