<svg width="27" height="28" viewBox="0 0 27 28" fill="none" xmlns="http://www.w3.org/2000/svg">
<path d="M26 20.15V23.9C26.0015 24.2481 25.9301 24.5927 25.7907 24.9117C25.6512 25.2307 25.4467 25.517 25.1901 25.7523C24.9336 25.9877 24.6308 26.1669 24.301 26.2784C23.9712 26.3899 23.6218 26.4313 23.275 26.4C19.4286 25.982 15.7338 24.6677 12.4875 22.5625C9.46732 20.6433 6.90671 18.0827 4.98754 15.0625C2.87501 11.8015 1.56034 8.08874 1.15004 4.225C1.1188 3.87933 1.15988 3.53095 1.27066 3.20203C1.38145 2.87311 1.5595 2.57086 1.7935 2.31453C2.02749 2.05819 2.31229 1.85339 2.62978 1.71315C2.94726 1.57292 3.29046 1.50033 3.63754 1.5H7.38754C7.99417 1.49403 8.58228 1.70885 9.04224 2.10441C9.5022 2.49998 9.80263 3.04931 9.88754 3.65C10.0458 4.85008 10.3394 6.02841 10.7625 7.1625C10.9307 7.6099 10.9671 8.09614 10.8674 8.5636C10.7677 9.03106 10.5361 9.46014 10.2 9.8L8.61254 11.3875C10.392 14.5169 12.9831 17.1081 16.1125 18.8875L17.7 17.3C18.0399 16.9639 18.469 16.7323 18.9364 16.6326C19.4039 16.5329 19.8901 16.5693 20.3375 16.7375C21.4716 17.1607 22.65 17.4542 23.85 17.6125C24.4572 17.6982 25.0118 18.004 25.4082 18.4719C25.8046 18.9397 26.0152 19.537 26 20.15Z" stroke="#1E1E1E" stroke-width="2" stroke-linecap="round" stroke-linejoin="round"/>
</svg>
