<svg width="28" height="27" viewBox="0 0 28 27" fill="none" xmlns="http://www.w3.org/2000/svg">
<rect x="0.5" y="0.5" width="27" height="26" stroke="#1D1D1B"/>
<path d="M3.97 16.09C3.45667 16.09 2.99 15.9933 2.57 15.8C2.15667 15.6067 1.83333 15.34 1.6 15C1.36667 14.66 1.25 14.2767 1.25 13.85C1.25 13.55 1.37667 13.3433 1.63 13.23C1.89 13.11 2.25667 13.05 2.73 13.05C2.71 13.1567 2.7 13.3167 2.7 13.53C2.7 13.95 2.80667 14.27 3.02 14.49C3.23333 14.7033 3.55 14.81 3.97 14.81C4.38333 14.81 4.69667 14.69 4.91 14.45C5.13 14.21 5.24 13.8633 5.24 13.41V10.27H4.29C3.95667 10.27 3.70667 10.1667 3.54 9.96C3.38 9.74667 3.3 9.42667 3.3 9H5.99C6.19 9 6.36 9.06667 6.5 9.2C6.64 9.32667 6.71 9.48333 6.71 9.67V13.41C6.71 13.9233 6.59 14.3833 6.35 14.79C6.11667 15.1967 5.79 15.5167 5.37 15.75C4.95667 15.9767 4.49 16.09 3.97 16.09ZM8.58094 16.09C8.26094 16.0633 8.01094 15.96 7.83094 15.78C7.65094 15.6 7.56094 15.3733 7.56094 15.1C7.56094 14.8867 7.61427 14.6633 7.72094 14.43L9.98094 9.4C10.0543 9.23333 10.1476 9.11 10.2609 9.03C10.3809 8.95 10.5276 8.91 10.7009 8.91C10.8743 8.91 11.0176 8.95 11.1309 9.03C11.2509 9.11 11.3476 9.23333 11.4209 9.4L13.6809 14.43C13.7876 14.6633 13.8409 14.8833 13.8409 15.09C13.8409 15.37 13.7509 15.6 13.5709 15.78C13.3909 15.96 13.1376 16.0633 12.8109 16.09L11.9709 14.26H9.42094L8.58094 16.09ZM11.5209 13L10.4909 10.44L10.3509 10.5L10.6209 11.17L9.86094 13H11.5209ZM16.5534 16.09C16.1934 16.09 15.9534 15.9267 15.8334 15.6L13.2934 9.06C13.3667 9.02 13.4634 8.98667 13.5834 8.96C13.71 8.92667 13.8267 8.91 13.9334 8.91C14.5067 8.91 14.8734 9.14 15.0334 9.6L16.4734 13.64L16.2234 14.32L16.3434 14.37L18.0634 9.6C18.2367 9.14 18.6034 8.91 19.1634 8.91C19.27 8.91 19.3834 8.92667 19.5034 8.96C19.63 8.98667 19.73 9.02 19.8034 9.06L17.2734 15.6C17.1534 15.9267 16.9134 16.09 16.5534 16.09ZM20.2704 16.09C19.9504 16.0633 19.7004 15.96 19.5204 15.78C19.3404 15.6 19.2504 15.3733 19.2504 15.1C19.2504 14.8867 19.3037 14.6633 19.4104 14.43L21.6704 9.4C21.7437 9.23333 21.8371 9.11 21.9504 9.03C22.0704 8.95 22.2171 8.91 22.3904 8.91C22.5637 8.91 22.7071 8.95 22.8204 9.03C22.9404 9.11 23.0371 9.23333 23.1104 9.4L25.3704 14.43C25.4771 14.6633 25.5304 14.8833 25.5304 15.09C25.5304 15.37 25.4404 15.6 25.2604 15.78C25.0804 15.96 24.8271 16.0633 24.5004 16.09L23.6604 14.26H21.1104L20.2704 16.09ZM23.2104 13L22.1804 10.44L22.0404 10.5L22.3104 11.17L21.5504 13H23.2104Z" fill="black"/>
</svg>
