<svg width="28" height="27" viewBox="0 0 28 27" fill="none" xmlns="http://www.w3.org/2000/svg">
<rect x="0.5" y="0.5" width="27" height="26" stroke="#1D1D1B"/>
<path d="M7.46 16.09C6.86 16.09 6.32333 15.9733 5.85 15.74C5.37667 15.5067 5.00667 15.1833 4.74 14.77C4.48 14.35 4.35 13.8733 4.35 13.34V11.64C4.35 11.1067 4.47667 10.6333 4.73 10.22C4.99 9.80667 5.35 9.48667 5.81 9.26C6.27667 9.02667 6.80667 8.91 7.4 8.91C7.99333 8.91 8.52333 9 8.99 9.18C9.45667 9.35333 9.81667 9.6 10.07 9.92C10.33 10.24 10.46 10.6033 10.46 11.01C10.46 11.2767 10.3733 11.4867 10.2 11.64C10.0267 11.7867 9.79 11.86 9.49 11.86C9.31667 11.86 9.14667 11.8367 8.98 11.79C9 11.65 9.01 11.48 9.01 11.28C9.01 10.96 8.86 10.7 8.56 10.5C8.26 10.2933 7.87333 10.19 7.4 10.19C6.93333 10.19 6.55333 10.3267 6.26 10.6C5.96667 10.8667 5.82 11.2133 5.82 11.64V13.34C5.82 13.7733 5.97 14.1267 6.27 14.4C6.57667 14.6733 6.97333 14.81 7.46 14.81C7.93333 14.81 8.31667 14.71 8.61 14.51C8.91 14.31 9.06 14.05 9.06 13.73C9.06 13.51 9.05 13.35 9.03 13.25C9.21 13.21 9.37333 13.19 9.52 13.19C9.82 13.19 10.06 13.2667 10.24 13.42C10.42 13.5733 10.51 13.7833 10.51 14.05C10.51 14.4433 10.38 14.7967 10.12 15.11C9.86667 15.4167 9.50667 15.6567 9.04 15.83C8.58 16.0033 8.05333 16.09 7.46 16.09ZM14.2355 16.09C13.3021 16.09 12.5621 15.93 12.0155 15.61C11.4755 15.29 11.2055 14.8467 11.2055 14.28C11.2055 14.0333 11.2988 13.8333 11.4855 13.68C11.6721 13.5267 11.9855 13.45 12.4255 13.45C12.4521 13.9367 12.6188 14.3067 12.9255 14.56C13.2388 14.8067 13.6755 14.93 14.2355 14.93C14.6688 14.93 15.0088 14.8567 15.2555 14.71C15.5021 14.5567 15.6255 14.3467 15.6255 14.08C15.6255 13.9 15.5788 13.7533 15.4855 13.64C15.3921 13.5267 15.2288 13.4233 14.9955 13.33C14.7688 13.2367 14.4355 13.14 13.9955 13.04C13.3288 12.8867 12.8055 12.7133 12.4255 12.52C12.0455 12.3267 11.7688 12.0967 11.5955 11.83C11.4288 11.5633 11.3455 11.23 11.3455 10.83C11.3455 10.45 11.4588 10.1167 11.6855 9.83C11.9188 9.53667 12.2421 9.31 12.6555 9.15C13.0688 8.99 13.5488 8.91 14.0955 8.91C14.6155 8.91 15.0821 8.98 15.4955 9.12C15.9088 9.25333 16.2321 9.44333 16.4655 9.69C16.6988 9.93667 16.8155 10.22 16.8155 10.54C16.8155 10.7867 16.7221 10.9833 16.5355 11.13C16.3555 11.27 16.0555 11.3467 15.6355 11.36C15.6021 10.9133 15.4655 10.5867 15.2255 10.38C14.9855 10.1733 14.6088 10.07 14.0955 10.07C13.6755 10.07 13.3521 10.1367 13.1255 10.27C12.8988 10.4033 12.7855 10.5967 12.7855 10.85C12.7855 11.0233 12.8288 11.1667 12.9155 11.28C13.0021 11.3867 13.1488 11.4833 13.3555 11.57C13.5688 11.6567 13.8721 11.7433 14.2655 11.83C14.9521 11.9833 15.4955 12.16 15.8955 12.36C16.3021 12.5533 16.5955 12.7867 16.7755 13.06C16.9621 13.3333 17.0555 13.67 17.0555 14.07C17.0555 14.4767 16.9388 14.8333 16.7055 15.14C16.4788 15.4467 16.1521 15.6833 15.7255 15.85C15.3055 16.01 14.8088 16.09 14.2355 16.09ZM20.7882 16.09C19.8549 16.09 19.1149 15.93 18.5682 15.61C18.0282 15.29 17.7582 14.8467 17.7582 14.28C17.7582 14.0333 17.8515 13.8333 18.0382 13.68C18.2249 13.5267 18.5382 13.45 18.9782 13.45C19.0049 13.9367 19.1715 14.3067 19.4782 14.56C19.7915 14.8067 20.2282 14.93 20.7882 14.93C21.2215 14.93 21.5615 14.8567 21.8082 14.71C22.0549 14.5567 22.1782 14.3467 22.1782 14.08C22.1782 13.9 22.1315 13.7533 22.0382 13.64C21.9449 13.5267 21.7815 13.4233 21.5482 13.33C21.3215 13.2367 20.9882 13.14 20.5482 13.04C19.8815 12.8867 19.3582 12.7133 18.9782 12.52C18.5982 12.3267 18.3215 12.0967 18.1482 11.83C17.9815 11.5633 17.8982 11.23 17.8982 10.83C17.8982 10.45 18.0115 10.1167 18.2382 9.83C18.4715 9.53667 18.7949 9.31 19.2082 9.15C19.6215 8.99 20.1015 8.91 20.6482 8.91C21.1682 8.91 21.6349 8.98 22.0482 9.12C22.4615 9.25333 22.7849 9.44333 23.0182 9.69C23.2515 9.93667 23.3682 10.22 23.3682 10.54C23.3682 10.7867 23.2749 10.9833 23.0882 11.13C22.9082 11.27 22.6082 11.3467 22.1882 11.36C22.1549 10.9133 22.0182 10.5867 21.7782 10.38C21.5382 10.1733 21.1615 10.07 20.6482 10.07C20.2282 10.07 19.9049 10.1367 19.6782 10.27C19.4515 10.4033 19.3382 10.5967 19.3382 10.85C19.3382 11.0233 19.3815 11.1667 19.4682 11.28C19.5549 11.3867 19.7015 11.4833 19.9082 11.57C20.1215 11.6567 20.4249 11.7433 20.8182 11.83C21.5049 11.9833 22.0482 12.16 22.4482 12.36C22.8549 12.5533 23.1482 12.7867 23.3282 13.06C23.5149 13.3333 23.6082 13.67 23.6082 14.07C23.6082 14.4767 23.4915 14.8333 23.2582 15.14C23.0315 15.4467 22.7049 15.6833 22.2782 15.85C21.8582 16.01 21.3615 16.09 20.7882 16.09Z" fill="black"/>
</svg>
