<svg width="28" height="27" viewBox="0 0 28 27" fill="none" xmlns="http://www.w3.org/2000/svg">
<rect x="0.5" y="0.5" width="27" height="26" stroke="#1D1D1B"/>
<path d="M9.21 17.09C8.86333 17.09 8.57667 16.9633 8.35 16.71L10.71 13.4L8.46 10.19C8.54 10.1033 8.65 10.0367 8.79 9.99C8.93667 9.93667 9.08667 9.91 9.24 9.91C9.45333 9.91 9.65 9.94667 9.83 10.02C10.0167 10.0867 10.1433 10.1733 10.21 10.28L11.44 12.2L11.15 12.61L11.26 12.69L12.85 10.28C12.9167 10.1733 13.04 10.0867 13.22 10.02C13.4067 9.94667 13.6067 9.91 13.82 9.91C13.9733 9.91 14.12 9.93667 14.26 9.99C14.4067 10.0367 14.52 10.1033 14.6 10.19L12.35 13.4L14.71 16.71C14.4833 16.9633 14.1967 17.09 13.85 17.09C13.4833 17.09 13.21 16.96 13.03 16.7L11.53 14.47L10.03 16.7C9.95 16.82 9.83667 16.9167 9.69 16.99C9.54333 17.0567 9.38333 17.09 9.21 17.09ZM17.0013 17.09C16.648 17.09 16.328 17.0133 16.0413 16.86C15.7547 16.7 15.528 16.4833 15.3613 16.21C15.1947 15.93 15.1113 15.6167 15.1113 15.27V13.73C15.1113 13.3833 15.198 13.0733 15.3713 12.8C15.5513 12.52 15.798 12.3033 16.1113 12.15C16.4247 11.99 16.7713 11.91 17.1513 11.91C17.378 11.91 17.6213 11.9567 17.8813 12.05C18.148 12.1433 18.368 12.2733 18.5413 12.44L18.5813 12.39C18.548 12.3367 18.4747 12.27 18.3613 12.19V10.81C18.3613 10.53 18.4747 10.31 18.7013 10.15C18.9347 9.99 19.2847 9.91 19.7513 9.91V16.18C19.7513 16.44 19.648 16.6567 19.4413 16.83C19.2347 17.0033 18.918 17.09 18.4913 17.09V16.55C18.5713 16.45 18.6347 16.36 18.6813 16.28L18.6313 16.24C18.418 16.5267 18.188 16.74 17.9413 16.88C17.7013 17.02 17.388 17.09 17.0013 17.09ZM17.4313 15.91C17.7113 15.91 17.938 15.8467 18.1113 15.72C18.2913 15.5867 18.3813 15.42 18.3813 15.22V13.78C18.3813 13.5867 18.2913 13.4233 18.1113 13.29C17.938 13.1567 17.7113 13.09 17.4313 13.09C17.1247 13.09 16.888 13.1533 16.7213 13.28C16.5613 13.4067 16.4813 13.5867 16.4813 13.82V15.17C16.4813 15.41 16.5613 15.5933 16.7213 15.72C16.888 15.8467 17.1247 15.91 17.4313 15.91Z" fill="black"/>
</svg>
