<svg width="28" height="27" viewBox="0 0 28 27" fill="none" xmlns="http://www.w3.org/2000/svg">
<rect x="0.5" y="0.5" width="27" height="26" stroke="#1D1D1B"/>
<path d="M9.37 17.09C9.05 17.0633 8.8 16.96 8.62 16.78C8.44 16.6 8.35 16.3733 8.35 16.1C8.35 15.8867 8.40333 15.6633 8.51 15.43L10.77 10.4C10.8433 10.2333 10.9367 10.11 11.05 10.03C11.17 9.95 11.3167 9.91 11.49 9.91C11.6633 9.91 11.8067 9.95 11.92 10.03C12.04 10.11 12.1367 10.2333 12.21 10.4L14.47 15.43C14.5767 15.6633 14.63 15.8833 14.63 16.09C14.63 16.37 14.54 16.6 14.36 16.78C14.18 16.96 13.9267 17.0633 13.6 17.09L12.76 15.26H10.21L9.37 17.09ZM12.31 14L11.28 11.44L11.14 11.5L11.41 12.17L10.65 14H12.31ZM16.4224 11.53C16.1691 11.53 15.9558 11.4567 15.7824 11.31C15.6158 11.1567 15.5324 10.96 15.5324 10.72C15.5324 10.48 15.6158 10.2867 15.7824 10.14C15.9558 9.98667 16.1691 9.91 16.4224 9.91C16.6758 9.91 16.8858 9.98667 17.0524 10.14C17.2258 10.2867 17.3124 10.48 17.3124 10.72C17.3124 10.96 17.2258 11.1567 17.0524 11.31C16.8858 11.4567 16.6758 11.53 16.4224 11.53ZM15.7324 12.71C15.7324 12.4233 15.8458 12.22 16.0724 12.1C16.2991 11.9733 16.6424 11.91 17.1024 11.91V16.29C17.1024 16.5767 16.9891 16.7833 16.7624 16.91C16.5358 17.03 16.1924 17.09 15.7324 17.09V12.71Z" fill="black"/>
</svg>
